<svg xmlns="http://www.w3.org/2000/svg" viewBox="0 0 512 512">
	<path d="M449.5,61H62.61A62.69,62.69,0,0,0,0,123.67V388.33A62.69,62.69,0,0,0,62.61,451H449.39A62.69,62.69,0,0,0,512,388.33V123.77A62.63,62.63,0,0,0,449.5,61Zm0,361.37H62.61a34.07,34.07,0,0,1-34-34V123.77a34.06,34.06,0,0,1,34-34H449.39a34.06,34.06,0,0,1,34,34V388.33h.1A34.06,34.06,0,0,1,449.5,422.37Zm-.85-50.15a14.31,14.31,0,0,1-9.85,24.7,14.22,14.22,0,0,1-9.86-3.92L301.61,271.91l-35.7,32a14.25,14.25,0,0,1-19.07.1L212.09,273,84,392.89a14.32,14.32,0,0,1-9.75,3.82,14.65,14.65,0,0,1-10.49-4.56,14.38,14.38,0,0,1,.64-20.25L190.58,253.67,63.88,140.31A14.34,14.34,0,0,1,83,118.9L220,241.69a20.37,20.37,0,0,1,2.33,2c0,.11.11.21.22.32l33.68,30.11L428.94,119a14.34,14.34,0,0,1,19.18,21.31L322.9,252.71Z"/>
</svg>