<svg xmlns="http://www.w3.org/2000/svg" viewBox="0 0 512 512">
	<path d="M507.27,232.08,266.33,16A6.86,6.86,0,0,0,265,14.92a14.21,14.21,0,0,0-19.27-.31L4.75,230.71a14.37,14.37,0,0,0-1.16,20.18,14.29,14.29,0,0,0,20.11,1.16l43.39-39v252A35.9,35.9,0,0,0,102.89,501h76a33.67,33.67,0,0,0,33.6-33.69V339.19a5.17,5.17,0,0,1,5.16-5.18h76.77a5.18,5.18,0,0,1,5.16,5.18V467.31A33.66,33.66,0,0,0,333.2,501h76c20,0,35.81-19.75,35.81-45V214.45l43.38,39a14.3,14.3,0,0,0,20.12-1.16A14.59,14.59,0,0,0,507.27,232.08ZM416.5,302.53V455.79c0,10.25-5.06,16.48-7.37,16.48h-76a5.17,5.17,0,0,1-5.16-5.17V339.19a33.67,33.67,0,0,0-33.59-33.7H217.57A33.67,33.67,0,0,0,184,339.19V467.31a5.17,5.17,0,0,1-5.16,5.17h-76a7.4,7.4,0,0,1-7.37-7.39V187.51L255.27,44.29,416.5,188.88V302.53Z" />
</svg>