<svg xmlns="http://www.w3.org/2000/svg" viewBox="0 0 512 512">
	<path d="M443.6,431c-.11.11-.11,0,0,0Zm20.67-54.24c10.93,10.8,16.66,23.66,16.66,37.06s-5.62,26.26-16.34,37.39c-4.65,4.86-9.41,9.51-14.06,13.94-6.82,6.59-13.32,12.75-18.94,19.56-.11.22-.33.32-.44.54C414.71,503,393.71,512,368.71,512c-2.16,0-4.54-.11-6.82-.22-37.11-2.37-70.34-16.31-95.23-28.09C201.52,452.24,144.48,407.61,97.08,351.1,58,304.2,31.83,260.43,14.3,213.21,7.15,194-2.15,164.58.45,133A79,79,0,0,1,23.93,82.78L60.72,45.72l.22-.22C71.76,35.13,84.53,29.62,97.73,29.62S123.49,35.13,134,45.5c7,6.48,13.85,13.4,20.34,20.1,3.25,3.46,6.71,6.92,10.07,10.27l29.54,29.5c22.73,22.69,22.73,52.08,0,74.77-3,3-6.06,6.16-9.09,9.19-8,8.1-16.23,16.53-25.11,24.64,6.6,14.59,15.69,29,29.22,46,27.92,34.26,57,60.73,89.07,81.05,3.13,1.94,6.81,3.78,10.71,5.72,2.7,1.41,5.52,2.81,8.33,4.33l34.2-34c10.93-10.92,23.7-16.64,37-16.64s26.08,5.83,36.58,16.75Zm-20.78,20.42-59.63-59.54-.21-.22c-3.36-3.67-8.88-7.89-15.59-7.89s-12.66,4.44-16.34,8.11l-37,37c-1.84,1.83-7.47,7.45-16.45,7.45a23.44,23.44,0,0,1-10.71-2.7c-.43-.22-.87-.54-1.3-.76-3.14-1.94-6.82-3.78-10.71-5.72a146.3,146.3,0,0,1-13.31-7.24C227.49,343.64,196,315,166.13,278.26l-.11-.1c-16.45-20.86-27.27-38.37-35-57l-.32-1c-2-6.15-3.68-15.23,5.63-24.52.11-.22.32-.33.54-.55,9.41-8.42,18.07-17.07,27.16-26.36,3.14-3,6.17-6.16,9.31-9.3,11.47-11.45,11.47-22,0-33.49L143.83,96.5c-3.46-3.56-6.92-7-10.28-10.48-6.6-6.8-12.87-13.18-19.48-19.34l-.32-.32c-3.46-3.46-9-7.57-15.8-7.57-5.52,0-11.15,2.7-16.45,7.67L44.6,103.31a49.63,49.63,0,0,0-14.94,32.1c-1.62,19.77,2.06,40.74,12.12,67.64,16.35,44.09,41,85.16,77.92,129.57,44.7,53.27,98.48,95.31,159.73,124.92,22.4,10.7,52.27,23.23,84.41,25.28,1.63.11,3.36.11,5,.11,16.88,0,29.76-5.51,40.69-17.18a283.05,283.05,0,0,1,20.89-21.61c4.65-4.54,9-8.65,13.2-13.19C454.64,419.5,454.64,408.15,443.49,397.13ZM276.73,121.79A139.18,139.18,0,0,1,390.14,235a14.51,14.51,0,0,0,14.39,12.1,20.73,20.73,0,0,0,2.49-.21,14.61,14.61,0,0,0,12-16.86,168.26,168.26,0,0,0-137.22-137,14.68,14.68,0,0,0-16.88,11.88A14.43,14.43,0,0,0,276.73,121.79Zm235,104.06A277.11,277.11,0,0,0,285.82.22,14.57,14.57,0,1,0,281.06,29,247.48,247.48,0,0,1,483,230.61a14.51,14.51,0,0,0,14.39,12.1,20.73,20.73,0,0,0,2.49-.21A14.34,14.34,0,0,0,511.78,225.85Z"/>
</svg>